<?xml version="1.0" encoding="utf-8"?>
<!-- Generator: Adobe Illustrator 22.0.1, SVG Export Plug-In . SVG Version: 6.00 Build 0)  -->
<svg version="1.1" id="Layer_1" xmlns="http://www.w3.org/2000/svg" xmlns:xlink="http://www.w3.org/1999/xlink" x="0px" y="0px"
	 viewBox="0 0 29 26" style="enable-background:new 0 0 29 26;" xml:space="preserve">
<style type="text/css">
	.st0{fill:none;}
	.st1{fill:#FFFFFF;}
</style>
<g id="Group_18" transform="translate(0.226 0)">
	<g id="Rectangle_32">
		<rect x="-0.2" class="st0" width="29" height="26"/>
	</g>
	<g id="Ellipse_1">
		<path class="st1" d="M14.3,23.5c-6.1,0-11-4.5-11-10c0-5.5,4.9-10,11-10s11,4.5,11,10C25.3,19,20.3,23.5,14.3,23.5z M14.3,4.5
			c-5.5,0-10,4-10,9c0,5,4.5,9,10,9c5.5,0,10-4,10-9C24.3,8.5,19.8,4.5,14.3,4.5z"/>
	</g>
	<g id="Path_15">
		<path class="st1" d="M14.8,18.4c-1,0-2.1-0.3-3-1c-1.1-0.8-1.8-2-2-3.3c-0.2-1.3,0.1-2.6,1-3.7c1.7-2.2,4.8-2.7,7-1
			c0.4,0.3,0.7,0.6,1,1c0.2,0.2,0.1,0.5-0.1,0.7c-0.2,0.2-0.5,0.1-0.7-0.1c-0.2-0.3-0.5-0.6-0.8-0.8c-1.8-1.3-4.3-1-5.6,0.8
			c-0.6,0.9-0.9,1.9-0.8,3s0.7,2,1.6,2.6c0.9,0.6,1.9,0.9,3,0.8c1.1-0.2,2-0.7,2.6-1.6c0.2-0.2,0.5-0.3,0.7-0.1
			c0.2,0.2,0.3,0.5,0.1,0.7C17.8,17.7,16.3,18.4,14.8,18.4z"/>
	</g>
</g>
</svg>
