<svg xmlns="http://www.w3.org/2000/svg" xmlns:xlink="http://www.w3.org/1999/xlink" width="283.441" height="65" viewBox="0 0 283.441 65">
  <defs>
    <clipPath id="clip-path">
      <rect id="Rectangle_56" data-name="Rectangle 56" width="283.441" height="65" fill="#fff"/>
    </clipPath>
  </defs>
  <g id="Group_59" data-name="Group 59" clip-path="url(#clip-path)">
    <path id="Path_81" data-name="Path 81" d="M41.784,18.069c0,11.4-9.706,16.46-24.309,16.46h-6.44a2.594,2.594,0,0,0-2.594,2.594V63.562H0V41.415c0-4.183,2.843-7.98,8.415-7.993C3.7,33.413,0,31.162,0,25.783V.259h21.7c12.074,0,20.093,7.092,20.09,17.81M17.478,32.757c9.876,0,16.46-4.979,16.454-16.038,0-9.031-5.736-15.026-14.348-15.026H8.441V30.166a2.593,2.593,0,0,0,2.594,2.591h6.443Z" transform="translate(-0.002 0.59)" fill="#fff"/>
    <path id="Path_82" data-name="Path 82" d="M60.857.259V63.565H52.415V31.237H26.259a2.593,2.593,0,0,0-2.591,2.594V63.565H15.226V38.824c0-4.193,2.847-8,8.435-8-4.724,0-8.435-2.247-8.435-7.639V.259h8.442V27.8A2.59,2.59,0,0,0,26.259,30.4H52.415V.259Z" transform="translate(34.65 0.59)" fill="#fff"/>
    <path id="Path_83" data-name="Path 83" d="M87.841.259V.511H86.573a6.1,6.1,0,0,0-5.051,3.207L64.629,35.371V63.565H56.187V45.09c0-5.274,2.054-9.719,6.915-9.719-4.923.033-8.759-2.424-11.74-6.84L36.219,3.888h-.036C34.767,1.625,33.362.511,31.626.511V.259H49.433V.511H47.494c-2.028,0-2.532,1.353-1.35,3.377C52.125,14,58.264,24.191,64.308,34.333L79.828,3.888c1.006-2.024.331-3.377-1.694-3.377H74.5V.259Z" transform="translate(71.972 0.59)" fill="#fff"/>
    <path id="Path_84" data-name="Path 84" d="M87.992,47.61C87.992,58.076,80.566,65,69.507,65a22.771,22.771,0,0,1-16.585-7.518c-1.867-1.592-3.184-1.065-3.335,1.441,0,.59-.088,3.862-.088,4.452H49.08v-16.1h1.094c.17.337.341.76.508,1.1,1.772,4.219,4.642,8.523,7.174,10.718l-.02.023A18.035,18.035,0,0,0,69.5,63.9a10.815,10.815,0,0,0,9.221-4.776,15.912,15.912,0,0,0,2.506-9.067c0-3.168-2.087-6.375-6.214-9.182a36.776,36.776,0,0,0-8.048-3.987C55.91,32.836,50.256,25.155,50.256,16.631,50.256,6.673,56.755,0,66.461,0A21.93,21.93,0,0,1,81.3,5.422l.013-.016c1.52,1.435,2.617,1.268,2.784-.337,0-.337.088-3.436.088-3.777h.423v13.06h-1.1c-.17-.337-.337-.76-.508-1.1C80.065,6.391,75.069.846,66.464.846c-5.739,0-9.539,5.068-9.539,12.579,0,5.487,5.149,11.056,15.108,14.685,10.551,3.8,15.953,11.311,15.959,19.5" transform="translate(111.692 0.001)" fill="#fff"/>
    <path id="Path_85" data-name="Path 85" d="M71.39.258h8.442V31.7c-4.727,0-8.442-2.247-8.442-7.642ZM79.832,31.7V63.564H71.39V39.688c0-4.19,2.85-7.993,8.442-7.993m41.146,31.617v.252H106.457L81.247,33.343a2.594,2.594,0,0,1-.013-3.308l18.4-22.347H99.62c3.544-4.3,3.037-7.174-1.264-7.174H95.991V.258h18.318V.514h-1.268c-2.532,0-5.572,1.687-7.767,4.219-5.827,6.735-11.6,13.529-17.4,20.293a2.593,2.593,0,0,0-.016,3.354l27.008,32.135a7.466,7.466,0,0,0,6.109,2.8" transform="translate(162.463 0.588)" fill="#fff"/>
    <path id="Path_86" data-name="Path 86" d="M63.779.069V.8L75.909.711a8.432,8.432,0,0,0-8.068,8.422V64a8.442,8.442,0,0,0,8.442-8.438V.069Z" transform="translate(145.143 0.158)" fill="#fff"/>
  </g>
</svg>
