<svg id="Group_37" data-name="Group 37" xmlns="http://www.w3.org/2000/svg" xmlns:xlink="http://www.w3.org/1999/xlink" width="184" height="135.516" viewBox="0 0 184 135.516">
  <defs>
    <linearGradient id="linear-gradient" x1="0.5" x2="0.5" y2="1" gradientUnits="objectBoundingBox">
      <stop offset="0" stop-color="#dd7f51"/>
      <stop offset="0.433" stop-color="#daccc3"/>
      <stop offset="1" stop-color="#5b5cc9"/>
    </linearGradient>
    <clipPath id="clip-path">
      <rect id="Rectangle_48" data-name="Rectangle 48" width="184" height="135.516" fill="url(#linear-gradient)"/>
    </clipPath>
  </defs>
  <g id="Group_36" data-name="Group 36" transform="translate(0 0)" clip-path="url(#clip-path)">
    <path id="Path_65" data-name="Path 65" d="M4.836,133.887h1.1c0-34.4,2.629-66.741,7.4-91.059C17.992,19.1,24.314,5.5,30.683,5.5V4.454c-3.653,0-7.135,3.513-10.35,10.442-3.029,6.529-5.747,15.862-8.078,27.742A378.622,378.622,0,0,0,6.826,83.667c-1.322,15.907-1.99,32.8-1.99,50.219" transform="translate(146.348 1.63)" fill="url(#linear-gradient)"/>
    <path id="Path_66" data-name="Path 66" d="M22.006,130.192h1.1c0-30.719,2.2-59.6,6.2-81.31,1.94-10.535,4.2-18.8,6.7-24.562C38.5,18.613,41.175,15.6,43.754,15.6s5.259,3.017,7.743,8.724c2.509,5.763,4.764,14.027,6.7,24.562,4,21.714,6.2,50.591,6.2,81.31h1.1c0-15.554-.562-30.643-1.667-44.847A359.523,359.523,0,0,0,59.287,48.7c-1.954-10.609-4.233-18.947-6.772-24.779-2.706-6.218-5.654-9.37-8.761-9.37S37.7,17.7,34.995,23.922c-2.541,5.832-4.818,14.17-6.772,24.779a359.525,359.525,0,0,0-4.55,36.643c-1.107,14.2-1.667,29.293-1.667,44.847" transform="translate(86.783 5.325)" fill="url(#linear-gradient)"/>
    <path id="Path_67" data-name="Path 67" d="M51.425,125.262h1.1c0-25.8,1.885-50.059,5.309-68.3,1.659-8.844,3.588-15.78,5.736-20.617,2.113-4.763,4.381-7.28,6.557-7.28s4.446,2.517,6.559,7.28c2.146,4.837,4.076,11.773,5.736,20.617,3.424,18.238,5.309,42.492,5.309,68.3h1.1c0-13.069-.481-25.749-1.428-37.686a296.482,296.482,0,0,0-3.9-30.795c-1.675-8.921-3.627-15.932-5.8-20.838-2.333-5.255-4.881-7.92-7.575-7.92s-5.241,2.665-7.573,7.92c-2.178,4.906-4.13,11.918-5.8,20.838a296.482,296.482,0,0,0-3.9,30.795c-.948,11.937-1.428,24.616-1.428,37.686" transform="translate(21.057 10.255)" fill="url(#linear-gradient)"/>
    <path id="Path_68" data-name="Path 68" d="M76.619,120.266h1.1c0-20.819,1.689-40.387,4.757-55.1,1.487-7.129,3.214-12.717,5.133-16.611,1.882-3.816,3.9-5.834,5.838-5.834s3.956,2.017,5.838,5.834c1.92,3.894,3.648,9.482,5.133,16.611,3.068,14.712,4.757,34.28,4.757,55.1h1.1c0-20.885-1.7-40.525-4.777-55.3-1.5-7.211-3.258-12.879-5.217-16.85-2.105-4.27-4.4-6.435-6.835-6.435s-4.73,2.165-6.835,6.435c-1.957,3.971-3.712,9.639-5.215,16.85-3.081,14.778-4.779,34.418-4.779,55.3" transform="translate(-36.697 15.251)" fill="url(#linear-gradient)"/>
    <path id="Path_69" data-name="Path 69" d="M99.21,115.27h1.1c0-15.838,1.306-30.721,3.678-41.91a54.527,54.527,0,0,1,3.96-12.613c1.432-2.86,2.956-4.371,4.4-4.371s2.972,1.511,4.4,4.371a54.527,54.527,0,0,1,3.96,12.613c2.371,11.19,3.678,26.073,3.678,41.91h1.1c0-15.9-1.314-30.861-3.7-42.117A55.522,55.522,0,0,0,117.752,60.3c-1.652-3.3-3.467-4.966-5.4-4.966s-3.747,1.671-5.4,4.966a55.453,55.453,0,0,0-4.045,12.855c-2.385,11.255-3.7,26.212-3.7,42.117" transform="translate(-84.471 20.247)" fill="url(#linear-gradient)"/>
    <path id="Path_70" data-name="Path 70" d="M116.686,106.839h1.1A80.624,80.624,0,0,1,119.929,87.2c1.287-4.876,3.035-7.788,4.678-7.788s3.39,2.912,4.676,7.788a80.623,80.623,0,0,1,2.142,19.634h1.1a81.6,81.6,0,0,0-2.175-19.886c-1.032-3.913-2.866-8.579-5.744-8.579s-4.714,4.666-5.746,8.579a81.6,81.6,0,0,0-2.175,19.886" transform="translate(-116.686 28.678)" fill="url(#linear-gradient)"/>
    <path id="Path_71" data-name="Path 71" d="M0,6.606a6.794,6.794,0,0,0,6.969,6.606,6.8,6.8,0,0,0,6.969-6.606A6.8,6.8,0,0,0,6.969,0,6.794,6.794,0,0,0,0,6.606" transform="translate(170.061 0.001)" fill="url(#linear-gradient)"/>
  </g>
</svg>
