<svg xmlns="http://www.w3.org/2000/svg" xmlns:xlink="http://www.w3.org/1999/xlink" width="167.874" height="135.766" viewBox="0 0 167.874 135.766">
  <defs>
    <linearGradient id="linear-gradient" x1="0.5" x2="0.5" y2="1" gradientUnits="objectBoundingBox">
      <stop offset="0" stop-color="#dd7f51"/>
      <stop offset="0.433" stop-color="#daccc3"/>
      <stop offset="1" stop-color="#5b5cc9"/>
    </linearGradient>
    <clipPath id="clip-path">
      <rect id="Rectangle_49" data-name="Rectangle 49" width="135.766" height="167.874" fill="url(#linear-gradient)"/>
    </clipPath>
  </defs>
  <g id="Group_39" data-name="Group 39" transform="translate(167.874) rotate(90)">
    <g id="Group_38" data-name="Group 38" transform="translate(0 0)" clip-path="url(#clip-path)">
      <path id="Path_72" data-name="Path 72" d="M3.393,103.685a15.358,15.358,0,0,0,5,1.72c1.576.134,2.866,1.293,4.242,2,3.2,1.635,4.254,5.108,4.141,8.207a47.011,47.011,0,0,1-.681,5.262c-.227,1.485-.37,2.932-.508,4.427a24.493,24.493,0,0,0-.31,5.429c.182,1.458.388,3.339,1.586,4.444,1.355,1.248,2.941,2.262,4.157,3.628a37.763,37.763,0,0,0,3.3,3.463c1.251,1.1,2.29,2.359,3.525,3.477,1.348,1.223,2.914,2.363,3.794,3.907a6.044,6.044,0,0,1,.572,4.647c-.4,1.646-1.094,3.05-1.1,4.751-.045,7.317,11.292,8.363,17.442,8.691,3.794.2,7.391.332,11.052-.672a26.62,26.62,0,0,0,9.751-4.5c1.406-1.126,2.55-2.454,3.909-3.619a18.408,18.408,0,0,1,1.848-1.606,19.867,19.867,0,0,1,2.313-1.134,52.2,52.2,0,0,1,5.093-1.679,42.738,42.738,0,0,0,4.673-2.5,11.818,11.818,0,0,1,5.568-1.328c1.733.017,3.461.313,5.2.4a54.833,54.833,0,0,0,11.228-1.077,19.616,19.616,0,0,0,9.5-4.3,19.24,19.24,0,0,0,5.646-7.878,9,9,0,0,0,.491-5.138c-.355-1.714-1.041-3.33-1.5-5.019a36.492,36.492,0,0,1-1.231-10c.006-1.408-.037-3.131,1.256-4.174,1.138-.917,3.1-.915,4.487-1.466,3.8-1.514,4.68-5.123,4.266-8.448a7.452,7.452,0,0,1,.56-4.778c.721-1.371,1.485-2.708,2.189-4.087a8.755,8.755,0,0,0-1.068-9.448,25.526,25.526,0,0,0-3.835-3.4c-1.231-1.085-1.91-2.454-3.023-3.611a18.175,18.175,0,0,0-4.339-3.356,10.941,10.941,0,0,1-6.1-7.622,5.05,5.05,0,0,1,.035-2.545,6.688,6.688,0,0,1,1.6-2.05c1.163-1.242,2.637-2.269,3.917-3.42s2.464-2.332,3.647-3.548a11.979,11.979,0,0,0,3.209-9.236,5.128,5.128,0,0,0-2.389-4.273,10.285,10.285,0,0,0-5.037-1.573c-.935-.056-1.871-.175-2.809-.187a12.531,12.531,0,0,1-2.7-.1c-.886-.2-1.586-.444-1.757-1.265a4.165,4.165,0,0,1,.308-2.2c.5-1.42,1.437-2.692,1.718-4.176a14.847,14.847,0,0,0,.167-5.448,6.344,6.344,0,0,0-2.408-4.128,15.535,15.535,0,0,0-4.669-2.192,15.259,15.259,0,0,0-5.512-.633,49.929,49.929,0,0,1-5.687.114,8.826,8.826,0,0,1-7.682-5.761,7.484,7.484,0,0,0-2.656-3.742,10.727,10.727,0,0,0-4.644-1.512,11.323,11.323,0,0,0-5.375,1.077c-.735.313-1.784,1.046-2.625.554-.589-.342-.508-1.111-.465-1.672.136-1.713.537-3.369.555-5.1.016-1.425.091-2.849.174-4.271H75c-.012.509-.014,1.015-.05,1.522-.078,1.1-.081,2.209-.184,3.3a25.356,25.356,0,0,1-1.187,5.655,6.615,6.615,0,0,1-4.487,4.068,24.842,24.842,0,0,1-6.662,1.558,9.107,9.107,0,0,1-5.57-1.808c-1.574-1.22-2.7-2.749-4.432-3.825a23.475,23.475,0,0,0-2.716-1.544,10.11,10.11,0,0,0-3.176-.713,12.58,12.58,0,0,0-6.15.854,11.764,11.764,0,0,0-6.515,8.307,39.015,39.015,0,0,0-.5,4.96,13.507,13.507,0,0,0,.368,2.852c.142.973.235,1.953.355,2.929a13.247,13.247,0,0,1-.273,5.951,22.847,22.847,0,0,1-2.379,4.216c-1.024,1.7-1.638,3.293-3.306,4.64a9.883,9.883,0,0,1-5.258,1.946,35.217,35.217,0,0,1-6.352-.531c-1.919-.25-3.791-.527-5.7-.8-2.379-.344-4.719-.74-7.059-1.25C2.49,42.01,1.251,41.624,0,41.258v.895c.192.058.384.112.58.155,1.187.257,2.346.519,3.531.793,1.276.3,2.585.306,3.872.548a38.637,38.637,0,0,0,3.928.459c2.317.2,4.644.811,6.928,1.187.915.151,2.658.053,2.592,1.262-.048.874-1.481,1.584-2.206,2.019-1.7,1.022-3.374,2.436-5.254,3.164C12,52.5,9.836,53.064,8.139,54.282a10.254,10.254,0,0,0-3.709,4.31,18.278,18.278,0,0,0-.836,5.368c-.136,1.726.545,4.492-1.107,5.839A2.668,2.668,0,0,1,0,70.178v2.007c.936-.9,2.416-.893,3.283-1.915,1.117-1.315.925-2.9.851-4.431-.145-2.983-.492-6.223,1.565-8.821.859-1.085,6.511-5,6.955-2.172.2,1.26-.849,2.505-1.018,3.739a15.017,15.017,0,0,0-.118,4.239,16.541,16.541,0,0,0,1.365,4.371c.566,1.223,1.574,2.405,1.367,3.784A7.724,7.724,0,0,1,11.856,74.9a21.929,21.929,0,0,0-2.509,3.155c-1.642,2.395-2.4,5.3-1.311,7.987a14.511,14.511,0,0,0,2.108,3.648,18.619,18.619,0,0,0,2.744,3.13c2.367,1.861,4.977,3.317,7.036,5.453,2,2.075,4.469,3.358,6.819,5.052,1.2.859,2.829,1.964,3.434,3.266a10.015,10.015,0,0,1,.622,3.642c.149,2.926-1.433,4.919-4.145,6.514a38.469,38.469,0,0,0-3.94,2.427c-1.045.8-1.943,2.073-3.292,2.488-3.482,1.073-1.947-5.222-1.91-6.628a9.07,9.07,0,0,0-3.791-7.584,29.087,29.087,0,0,0-4.754-2.318c-1.382-.561-2.873-.828-4.256-1.386A8.612,8.612,0,0,1,0,99.591v1.566a8.791,8.791,0,0,0,3.393,2.527M25.205,131.5c2.034-.9,4.269-.534,6.435-.293a18.944,18.944,0,0,1,6.381,1.6,8.085,8.085,0,0,1,3.823,3.822,11.077,11.077,0,0,1,.752,5.834,21.726,21.726,0,0,0,.163,5.773,5.3,5.3,0,0,0,2.8,4.126,11.7,11.7,0,0,0,5.6,1.206,25.753,25.753,0,0,0,7.715-1.112c.921-.294,5.169-2.272,5.293-.345.047.708-.781,1.66-1.119,2.274a17.4,17.4,0,0,1-1.964,2.779,17.921,17.921,0,0,1-5.446,4.706c-3.9,2.019-9.21,1.675-13.025-.3a6.778,6.778,0,0,1-3.438-4.2c-.671-1.8-1.284-3.606-1.815-5.443a28.571,28.571,0,0,1-.88-3.215,14.469,14.469,0,0,0-.715-2.868,9.409,9.409,0,0,0-3.211-4.557c-3-2.121-7.655-2.442-9.731-5.574-1.2-1.815.651-3.439,2.389-4.213m28.379-25.785c2.331-.008,5.254-.565,6.908,1.216.936,1.009.671,2.092,1.117,3.257a5.681,5.681,0,0,0,2.253,2.429c2.113,1.282,4.892,1.146,7.286.82a10.568,10.568,0,0,1,4.537-.116,17.91,17.91,0,0,0,3.651.975c2.59.209,4.624-1.2,6.311-2.742a14.532,14.532,0,0,0,1.855-2.677c.743-1.036,1.386-2.163,2.189-3.16,1.551-1.934,4.2-.473,4.62,1.487.57,2.691-2.255,4.1-3.822,5.977-1.454,1.738-1.028,4.176-1.685,6.169a15.557,15.557,0,0,1-3.823,6.123,8.128,8.128,0,0,1-3.034,2.165,14.459,14.459,0,0,1-3.934.806,7.733,7.733,0,0,1-3.953-1.036,14.435,14.435,0,0,1-2.856-3.1,11.119,11.119,0,0,0-3.17-3.25,12.278,12.278,0,0,0-3.915-1.179,37.854,37.854,0,0,0-9.307-.3c-1.59.107-3.193.221-4.768.461-1.79.272-3.505.8-5.278,1.133a17.8,17.8,0,0,1-7.662-.556c-2.263-.553-5.289-1.509-3.87-4.055,1.121-2.01,4.188-3.366,6.263-4.5a59.845,59.845,0,0,0,6.805-3.846,11.713,11.713,0,0,1,7.28-2.5m-6.734-8.858c-.638-1.1-1.883-1.878-2.315-3.077-.438-1.218.894-1.543,2.1-1.531a7.291,7.291,0,0,1,6.511,4.514c.663,1.939.2,4.919-2.36,5.507-3.186-.083-2.922-3.67-3.936-5.414m43.324,7.611c-.9.468-1.163,1.371-1.65,2.129-.529.823-1.163,1.58-1.605,2.442a10.409,10.409,0,0,1-4.279,4.186c-2.007,1-3.829.393-5.842-.128a9.343,9.343,0,0,0-3.034-.469c-1.121.075-2.234.35-3.35.483-1.912.225-4.615.071-6.245-.918a4.991,4.991,0,0,1-1.792-1.815c-.442-.837-.237-1.769-.622-2.606-.872-1.891-2.85-2.635-4.882-3.286-2.078-.667-2.559-2.284-2.654-4.06a10.524,10.524,0,0,0-1.08-4.989,7.714,7.714,0,0,0-4.361-3.31,14.887,14.887,0,0,0-3.544-.813c-1.068-.09-2.17.053-3.228-.09-4-.539-6.774-4.512-5.646-7.894,1.241-3.718,6.127-4.322,8.479-7.166,2.885-3.488-3.63-5.808-3.948-8.979-.192-1.91,1.092-3.6,2.327-5.065a48.4,48.4,0,0,0,3.676-4.353,11.727,11.727,0,0,1,3.8-4.126,29.169,29.169,0,0,0,5.029-3.128c1.551-1.424,2.511-3.412,4.248-4.669a11.745,11.745,0,0,1,5.8-1.769,8.139,8.139,0,0,1,5.549,1.949c1.636,1.318,2.327,3.053,4.611,3.723s5.045.088,7.379-.116a33.739,33.739,0,0,1,6.924-.344c1.074.126,2.162.175,3.222.391a15.583,15.583,0,0,1,3,.68,3,3,0,0,1,1.194,4.449c-1.1,1.745-2.375,3.412-3.509,5.142a12.932,12.932,0,0,0-1.848,5.468c-.531,4.077-.461,8.014,2.1,11.617a16.93,16.93,0,0,0,4.471,4.087c1.811,1.262,2.99,2.325,2.839,4.456-.268,3.807-5.024,5.49-6.026,9.055-.494,1.759.413,3.449,1.551,4.868a5.875,5.875,0,0,1,1.487,5.12c-.339,1.652-1.9,3.016-3.486,1.466-1.326-1.3-2.941-2.716-5.049-1.623m-51.724-40.4c-3.087-.209-3.257-4.95-2.466-6.751,1.094-2.483,3.2-5.487,6.691-5.305,1.625.07,3.511.7,4.079,2.165.578,1.49-.147,2.953-1.014,4.211-1.377,2-4.126,5.894-7.29,5.679M56.433,39.185A18.222,18.222,0,0,1,63.12,36.46a39.641,39.641,0,0,0,7.4-2.216c1.1-.544,2.234-1.039,3.347-1.565,1.059-.5,1.96-1.186,3-1.7,4.161-2.043,9.491-3.519,14.28-2.575a7.583,7.583,0,0,1,5.188,3.254c1.074,1.781,1.76,3.665,3.3,5.22a12.54,12.54,0,0,0,5.526,3.342c1.057.3,2.625.345,3.445,1.078.77.685,0,1.708-.446,2.4a15.945,15.945,0,0,1-1.906,2.014,14.333,14.333,0,0,1-2.276,2.038,11.378,11.378,0,0,1-5.923,1.718c-2.6-.245-5.225-.345-7.81-.708-2.36-.332-5.192.2-7.583.422s-5.413.869-7.614-.308c-2-1.072-2.823-3.2-4.861-4.312-4.444-2.422-9.3-.447-12.622,2.468a13.479,13.479,0,0,1-2.846,2.289c-.706.34-2.044.73-2.722.175-1.435-1.168-.244-3.99.283-5.259a12.834,12.834,0,0,1,4.153-5.05m-.469-3.038c2,.094-.458,3.005-1.745,2.988-2.127,0,.1-3.063,1.745-2.988m7.319-2.99c.543-.968,1.223-1.907,1.856-2.832A10.056,10.056,0,0,1,70.7,26.374c2.22-.674,4.56-.907,6.8-1.5a43.773,43.773,0,0,1,7.1-1.539,9.134,9.134,0,0,1,6.325,1.237c.663.449,1.726,1.123,1.439,2.005-.262.8-1.541.852-2.315.934-2.422.257-4.81.471-7.2.935A28.142,28.142,0,0,0,76.824,30.5c-1.98.878-3.845,1.958-5.836,2.83a24.131,24.131,0,0,1-6.342,1.429c-1.132-.2-2-.469-1.363-1.6m39.257,5.6c-2.848-1.607-4.124-3.989-5.113-6.71-.52-1.43-.277-2.839,1.881-2.626a18.385,18.385,0,0,1,4.818,1.641,9.258,9.258,0,0,1,3.854,2.971c.289.386,2.03,3.841,1.778,3.878.4,3.509-5.316,1.917-7.218.845M97.215,74.352c.1.769,1.01,2.192.754,2.925-.353,1.005-1.85.255-2.416-.114a4.314,4.314,0,0,1-1.619-1.973,13.6,13.6,0,0,1-1.456-6.028A16.2,16.2,0,0,1,93.714,61.9a37.714,37.714,0,0,1,3.746-5.723c1.026-1.361,2.811-3.227,4.911-2.694a4.2,4.2,0,0,1,2.245,1.808,15.562,15.562,0,0,1,1.567,2.3c.81,1.619.332,3.545-.423,5.086a12.734,12.734,0,0,1-4.023,4.31c-1.495,1.184-3.414,2.522-4.1,4.247a6.823,6.823,0,0,0-.419,3.119M48.755,42.11a18.552,18.552,0,0,1-5.813,1.743c-2.055.277-3.785.2-5.355-1.089a4.887,4.887,0,0,1-1.615-4.3,5.62,5.62,0,0,1,1.8-4.167,7.891,7.891,0,0,1,5.059-1.726c3.655.063,8.2,1.856,8.694,5.361a4.962,4.962,0,0,1-2.771,4.176M97.8,110.281c.525-1.17,1.425-2.2,1.877-3.395a5.687,5.687,0,0,0,.145-3.291c-.535-2.352-2.6-4.072-3.571-6.266-1.055-2.374.613-4.284,2.313-6,1.671-1.687,3.525-3.218,4.184-5.461.271-.922.368-2.114,1.349-2.723.857-.531,2.363-.085,3.3.019,2.41.269,4.725.468,7.151.539,2.588.075,5.745-.486,8.161.488,2.251.91.38,3.645-.576,4.88a22.871,22.871,0,0,1-5.543,5.218c-2.179,1.417-4.45,2.687-6.534,4.215a25.275,25.275,0,0,0-4.859,4.847,10.772,10.772,0,0,0-1.685,3.2c-.364,1.083-.372,2.213-.694,3.3a41.426,41.426,0,0,0-1.223,6.276,16.459,16.459,0,0,0,.6,7.079c.768,2.245,1.574,4-.279,6.031-1.584,1.74-4.56,1.291-6.255,2.863a10.515,10.515,0,0,0-3.12,6.213c-.413,1.988-.776,4.6-2.129,6.3-1.39,1.747-4.81,2.056-7.026,2.05a55.258,55.258,0,0,0-8.455.381,58.682,58.682,0,0,0-14.557,4.291,20.424,20.424,0,0,1-6.928,1.835c-2.821.194-5.6.306-8.008-1.22-2.309-1.463-2.567-4.065-2.7-6.405-.145-2.429.4-4.851.18-7.287-.2-2.3-1.805-3.954-3.725-5.383a10.133,10.133,0,0,0-3.746-1.861c-1.173-.306-2.369-.488-3.552-.75-1.109-.247-2.842-.733-3.41-1.694-.543-.917.789-1.556,1.675-1.815,2.373-.691,5.605.107,7.831.893a16.9,16.9,0,0,1,3.606,1.425c1.028.646,2.053,1.291,3.005,2.022,1.9,1.456,3.292,3.444,5.47,4.591,2.379,1.254,5.01,1,7.544.289,2.619-.733,4.96-1.408,7.726-1.117,2.846.3,5.314,1.58,7.887,2.626,2.274.925,4.888,2.157,7.457,1.611a14.052,14.052,0,0,0,6.784-3.647,8.449,8.449,0,0,0,2.22-6.21,27.383,27.383,0,0,1,.3-3.626,8.76,8.76,0,0,1,1.313-2.91,18.262,18.262,0,0,1,2.309-2.633,15.186,15.186,0,0,0,2-2.883c1.206-2.186,1.179-4.659,2.183-6.9m6.637,20a4.85,4.85,0,0,1,3.015.279,5.6,5.6,0,0,1,3.335,8.554,11.906,11.906,0,0,1-4.136,4.312,34.473,34.473,0,0,1-5.95,2.2,13.907,13.907,0,0,1-5.826.81,3.794,3.794,0,0,1-2.484-.99c-.124-.134-.692-1.582-.551-1.565.339-2,.975-3.965,1.212-5.972a7.131,7.131,0,0,1,2.794-5.006,13.147,13.147,0,0,1,5.3-1.757c1.14-.211,2.179-.565,3.286-.867M29.816,146.035a23.272,23.272,0,0,1-3.019-2.442,17.8,17.8,0,0,1-2.792-2.905c-.24-.388-.574-.952-.213-1.369a3.727,3.727,0,0,1,.94-.321,21.819,21.819,0,0,1,4,1.23c1.241.471,2.864.922,3.758,1.835a8.441,8.441,0,0,1,2.071,3.191c.295.915.264,2.378-1.14,2.466-1.328.083-2.66-1.015-3.608-1.684M73.8,157c-.917,1.325-2.239,2.315-3.244,3.574A14.086,14.086,0,0,1,66.354,164a27.835,27.835,0,0,1-5.477,2.267c-.537.168-5.586,1.4-5.609,1.1-4.407,0-8.834.155-13.149-.777-4.046-.873-8.94-1.822-9.708-6.023-.345-1.888.454-8.212,4.145-6.412,1.412.689,1.644,2.442,2.139,3.653a7.811,7.811,0,0,0,2.895,3.886c2.856,1.895,7.348,2.466,10.776,1.76a14.362,14.362,0,0,0,4.8-1.942,18.663,18.663,0,0,0,3.8-3.46c1.171-1.257,1.939-2.815,3.122-4.041,1.123-1.163,3.156-1.7,4.812-1.92a6.957,6.957,0,0,1,4.913,1.18c1.433,1.153.869,2.449-.014,3.722m10.224-4.065a4.836,4.836,0,0,1-3.005.874c-1.369-.082-1.6-.5-.343-1.165a8.6,8.6,0,0,1,3.449-1.021c1.443-.012.62.823-.1,1.311m.525-2.363a15.849,15.849,0,0,0-4.95,1.264,5.345,5.345,0,0,1-4.754.468c-.9-.333-1.718-.81-2.625-1.136-.628-.225-1.91-.454-2.247-1.06-.644-1.15,2.323-1.947,3.162-2.213.413-.129,4.96-.932,4.96-.84,1.91,0,3.792-.054,5.7.109,1.1.094,4.2-.024,4.192,1.412-.01,1.286-2.329,1.828-3.434,2m38.958-20.635c.764,2.262,1.3,4.477.675,6.809a16.428,16.428,0,0,1-3.709,6.535,18.589,18.589,0,0,1-5.173,3.951,13.21,13.21,0,0,1-3.265,1.653c-1.293.318-2.606.674-3.93.869a73.417,73.417,0,0,1-7.816.859,39.157,39.157,0,0,1-4.556-.121c-1.247-.094-2.437-.378-3.68-.418-.708-.024-2.765-.187-2.305-1.191.392-.856,2.02-1.019,2.844-1.184,2.524-.509,5.1-.75,7.591-1.417a22.732,22.732,0,0,0,7.372-2.961c1.722-1.24,3.666-2.9,4.452-4.757a6.9,6.9,0,0,0-.188-6.127c-1.419-2.169-2.945-3.849-3-6.48-.054-2.381.51-4.72.5-7.11a72.4,72.4,0,0,0-.494-7.383,27.138,27.138,0,0,1-.155-6.945,4.385,4.385,0,0,1,1.476-2.755,4.639,4.639,0,0,1,3.552-1.192,4.1,4.1,0,0,1,3.418,1.633c1.02,1.14,1.043,2.339,1.309,3.708.262,1.342.477,2.7.781,4.036.3,1.313,1.08,2.5,1.468,3.791.787,2.626.748,5.407,1.055,8.094a38.5,38.5,0,0,0,1.78,8.1m4.5-18.905a8.327,8.327,0,0,1-3.591,1.065c-1.239.008-1.47-1.228-1.47-2.082-.176-1.294.766-2.592,1.431-3.689a10.516,10.516,0,0,1,2.327-2.864,3.311,3.311,0,0,1,3.364-.7,3.008,3.008,0,0,1,1.351,2.635c.184,2.328-1.28,4.337-3.412,5.635m3.843-25.86c1.359.352,2.362,1.917,2.835,2.994a6.8,6.8,0,0,1,.347,4.3c-.444,2.024-1.751,5.429-4.531,5.717-1.3.2-2.4-2.058-2.73-2.866a5.964,5.964,0,0,1-.2-4.267,34.686,34.686,0,0,1,1.629-3.972c.471-1.039,1.064-2.317,2.65-1.9m-4.035-.2a2.287,2.287,0,0,1,.461,2.2,27.319,27.319,0,0,1-1.251,2.977,10,10,0,0,0-.489,2.9c-.136,2.033.873,3.825.7,5.834a11.707,11.707,0,0,1-2.187,5.322c-.609.983-1.241,1.958-1.819,2.956-.366.633-.83,1.822-1.656,2.131-1.716.645-2.484-3.778-2.782-4.7-.543-1.682-1.2-3.364-3.091-4.259-1.576-.747-4.366-.623-5.638.57a7.8,7.8,0,0,0-1.793,2.385,7.38,7.38,0,0,0-.233,2.369c-.444,4.762.859,9.544.731,14.326-.041,1.546-.023,4.975-2.352,5.434-2.358.464-3.376-3.126-3.694-4.466a23.081,23.081,0,0,1,.919-12.19,18.285,18.285,0,0,1,2.257-5.24,23.646,23.646,0,0,1,4.494-4.633c3.461-2.73,7.851-4.456,10.848-7.661,1.559-1.667,2.815-3.536,4.316-5.244.522-.6,1.4-1.777,2.255-1.009m-2.214-30.09c-1.819,3.238-5.605,5.225-8.159,7.936a4.619,4.619,0,0,0-1.32,4.533,8.49,8.49,0,0,0,.795,2.6c.32.606.96,1.532.84,2.238-.233,1.347-2.928-.949-3.378-1.436a7.13,7.13,0,0,1-1.728-4.031,7.384,7.384,0,0,1,2.284-4.953c1.605-1.391,3.354-2.623,4.967-4.007,1.52-1.3,2.809-2.754,4.205-4.159.407-.41,1.379-1.8,2-.975.4.539-.217,1.733-.506,2.249M120.719,41.11c2.354.155,4.132.531,5.846,2.017a2.734,2.734,0,0,1,1.132,1.949c.012.76-.45,1.669-1.38,1.123-.774-.452-1.344-1.281-2.1-1.786a12.318,12.318,0,0,0-2.555-1.434c-.661-.24-2.282-.507-2.617-1.083-.487-.835,1.024-.74,1.679-.786m-4.647,1.39a25.949,25.949,0,0,1,3.486.355,11.278,11.278,0,0,1,2.934,1.186c1.972,1.09,3.647,1.961,3.478,4.242-.3,4.04-4.587,7.809-7.889,10.323-1.842,1.4-3.858,2.6-4.948,4.6a6.873,6.873,0,0,0-.366,6.065,9.343,9.343,0,0,0,4.328,4.171c2.086,1.049,4.7,1.558,6.559,2.908,1.6,1.162,2.713,3.415,1.514,5.126-1.105,1.573-4.454,1.565-6.319,1.652-5,.233-10.092.444-14.765-1.51a11.43,11.43,0,0,1-4.677-4.49,10.151,10.151,0,0,1-1.425-4.358c0-2.7,2.257-4.172,4.364-5.822a14.234,14.234,0,0,0,4.409-5.111c1.078-2.223.118-4.3-1.074-6.317-1.315-2.216-2.034-4.3-.686-6.647A15.873,15.873,0,0,1,109.368,44a7.423,7.423,0,0,1,3.18-1.6,14.549,14.549,0,0,1,3.523.094M72.495,17.281a14.108,14.108,0,0,1,3.482-4.114,13.3,13.3,0,0,1,4.789-3.176,8.748,8.748,0,0,1,5.751.7c2,.813,2.747,2.23,3.5,3.958a9.783,9.783,0,0,0,3.44,4.487,8.606,8.606,0,0,0,2.767,1.436,14.393,14.393,0,0,0,2.811.23c2.505.085,4.969-.19,7.47-.131a12.588,12.588,0,0,1,6.14,2.092c3.909,2.444,3.874,8.321,1.945,11.819-.63,1.14-1.764,3.335-3.564,2.41-1.633-.84-2.03-2.878-3.283-4.06-2.852-2.692-7.187-3.715-10.831-5.244-1.776-.745-2.895-1.99-4.328-3.126A8.472,8.472,0,0,0,86.9,22.724a27.785,27.785,0,0,0-6,.881,34.619,34.619,0,0,1-6.2,1.356c-2.061.155-3.476-.522-3.684-2.405-.192-1.721.7-3.716,1.479-5.274m-9.264.139a8.245,8.245,0,0,1,3.116-1.534C68.39,15.3,70.9,14.9,70.9,17.454a5.32,5.32,0,0,1-1,2.912,6.793,6.793,0,0,1-2.4,2.209c-2.162,1.143-4.4-.713-4.911-2.594a2.166,2.166,0,0,1,.648-2.562m-1.813,4.6A6.493,6.493,0,0,1,65.6,24.338a4.347,4.347,0,0,1-.01,4.4,14.339,14.339,0,0,1-2.67,3.713,10.974,10.974,0,0,1-4.739,2.419,4,4,0,0,1-3.007-2.209,5.415,5.415,0,0,1-.192-4.535c.845-2.38,2.773-6.6,6.431-6.1m-27.478.893a14.927,14.927,0,0,1,.764-7.137,12.1,12.1,0,0,1,4.539-5.822,12.121,12.121,0,0,1,7.631-1.422c2.932.4,4.8,2.092,6.794,3.886A9.985,9.985,0,0,1,56.584,19.1a18.2,18.2,0,0,1-.615,3.917c-.407,1.308-1,2.572-1.338,3.9s-.708,2.631-1.128,3.922c-.384,1.168-1.225,2.891-2.8,3.033-1.423.126-2.8-.946-4.14-1.279a31.24,31.24,0,0,0-3.829-.728c-2.493-.3-5.382.9-6.949-1.419-1.487-2.2-1.57-5.023-1.842-7.525M29.7,42.875c.335-.861.985-1.645,1.344-2.521a10.167,10.167,0,0,1,1.225-2.274c.343-.463.983-1.123,1.728-.971.863.175.861,1.146.946,1.75a6.747,6.747,0,0,1-2.373,4.808c-1.144.975-3.682,1.286-2.87-.793M18.466,50a19.04,19.04,0,0,1,3.418-1.777A39.622,39.622,0,0,1,25.7,46.808a6.4,6.4,0,0,1,3.492-.335c2.583.937-2.247,3.417-3.217,3.793A33.168,33.168,0,0,1,18.842,51.8c-.481-.107-1.508-.116-1.477-.708.023-.4.77-.856,1.1-1.089M12.037,62.4a8.444,8.444,0,0,1,3.9-8.538A16.778,16.778,0,0,1,21.328,52.3c.985-.187,2-.3,2.974-.48a14.106,14.106,0,0,0,2.2-.774,28.171,28.171,0,0,0,4.337-2.311A26.333,26.333,0,0,1,35.7,46.621a50.9,50.9,0,0,1,4.944-1.233c1.9-.417,3.75-.99,5.636-1.429,1.627-.379,3.61-.1,4.171,1.483a4.737,4.737,0,0,1-.989,4.393,6.159,6.159,0,0,1-4.737,1.919c-1.826-.112-3.166-.391-4.8.463a10.14,10.14,0,0,0-3.527,3.3c-.857,1.3-1.894,3.087-1.71,4.63.163,1.934.731,4.409-.3,6.21-.989,1.725-3.061,2.266-5.029,2.818-1.053.294-2.125.543-3.17.857a21.046,21.046,0,0,1-2.685.862,9.063,9.063,0,0,1-5.954-.5A10.186,10.186,0,0,1,12.037,62.4M17.82,92.776c-1.51.573-3.465-.187-4.731-.963a12.664,12.664,0,0,1-3.457-3.847,11.1,11.1,0,0,1-1.714-4.713,10.329,10.329,0,0,1,6.519-8.724,5.051,5.051,0,0,1,4.777.721,5.227,5.227,0,0,1,1.272,4.466c-.264,1.658-1.594,3-1.873,4.616-.254,1.468,1.268,3.031,1.508,4.5a3.479,3.479,0,0,1-2.3,3.941m2.253-6.116a3,3,0,0,1-.423-3.281,16.865,16.865,0,0,0,1.693-3.844,11.226,11.226,0,0,0-.07-3.664c-.434-2.74,2.336-4.172,4.857-5.057a35.494,35.494,0,0,1,8.758-2.155,15.044,15.044,0,0,1,9.12,3.606c.942.884,1.617,2.339.863,3.466-.82,1.228-2.552,2.141-3.9,2.856a10.3,10.3,0,0,0-3.257,2.129,8.2,8.2,0,0,0-1.935,3.142c-.56,2.647,1.667,5.46-.182,7.877-1.681,2.2-5.518,2.3-8.238,2.611a5.624,5.624,0,0,1-3.75-.777c-1.105-.679-1.346-1.869-1.664-2.939a15.085,15.085,0,0,0-1.875-3.97m9.34,18.536c-1.815-1.672-4.136-2.9-5.855-4.635-1.2-1.214-3.168-3.482-1-4.81a8.543,8.543,0,0,1,3.473-.7c1.258-.1,2.418-.327,3.661-.5.632-.087,7.007-1.209,7.005-.961,2.375,0,5.753.624,7.552,2.119a7.154,7.154,0,0,1,2.127,2.864,18.948,18.948,0,0,1,.494,3.659,6.352,6.352,0,0,1-2.154,6.12,24.979,24.979,0,0,1-6.679,3.963c-1.982.89-4.9.981-5.844-1.124-.933-2.087-.919-4.284-2.78-6m-2.172,12.472c2.17-.153,3.527.65,5.227,1.657a20.117,20.117,0,0,0,5.642,1.835,16.633,16.633,0,0,0,5.21.51c1.985-.2,3.961-.762,5.912-1.128a49.345,49.345,0,0,1,11.517-.75c3.178.168,6.84.64,8.888,3.033,1.082,1.264,2.055,2.628,3.11,3.909a5.625,5.625,0,0,0,3,1.652,9.693,9.693,0,0,0,8.6-1.813,17.7,17.7,0,0,0,4.781-6.941c.874-2.657.653-5.626,3.308-7.559,1-.73,2.573-.735,3.127.432a6.242,6.242,0,0,1,0,3.972,11.971,11.971,0,0,1-2.914,3.921,15.64,15.64,0,0,0-2.511,3.48c-1.38,2.567-.38,5.657-1.165,8.348-.8,2.759-3.4,4.563-6.2,5.706a8.152,8.152,0,0,1-4.993.711,27,27,0,0,1-4.114-1.371c-3.337-1.245-6.354-2.619-10.022-2.878a15.54,15.54,0,0,0-4.467.793,27.262,27.262,0,0,1-4.909,1.09c-3.727.134-5.735-2.208-8.077-4.332a23.2,23.2,0,0,0-8.225-4.739,18.838,18.838,0,0,0-5.136-1.119,19.7,19.7,0,0,0-4.826.556,16.813,16.813,0,0,1-4.75.56c-1.607-.146-2.146-1.549-2.393-2.749.021-2.849,2.955-6.545,6.381-6.785m-8.273,8.783c1.545.187,3.374,2.83,3.089,4.145-.039,1.623-.948,3.98-3.063,4.285-2.334.335-2.6-2.822-2.621-4.165-.025-1.247.522-4.516,2.6-4.264" transform="translate(0 -0.001)" fill="url(#linear-gradient)"/>
    </g>
  </g>
</svg>
