<svg id="Component_21_1" data-name="Component 21 – 1" xmlns="http://www.w3.org/2000/svg" xmlns:xlink="http://www.w3.org/1999/xlink" width="125.588" height="28.8" viewBox="0 0 125.588 28.8">
  <defs>
    <clipPath id="clip-path">
      <rect id="Rectangle_34" data-name="Rectangle 34" width="125.588" height="28.8" fill="none"/>
    </clipPath>
  </defs>
  <g id="Group_22" data-name="Group 22" clip-path="url(#clip-path)">
    <path id="Path_22" data-name="Path 22" d="M18.513,8.15c0,5.049-4.3,7.293-10.771,7.293H4.889a1.149,1.149,0,0,0-1.15,1.15V28.308H0V18.495a3.459,3.459,0,0,1,3.729-3.541c-2.089,0-3.729-1-3.729-3.385V.259H9.612c5.35,0,8.9,3.142,8.9,7.891M7.744,14.659c4.376,0,7.293-2.206,7.29-7.106,0-4-2.541-6.658-6.357-6.658H3.739V13.51a1.149,1.149,0,0,0,1.15,1.148H7.744Z" transform="translate(0 0.117)" fill="#0a0a0a"/>
    <path id="Path_23" data-name="Path 23" d="M35.444.259v28.05H31.7V13.985H20.114a1.149,1.149,0,0,0-1.148,1.15V28.309h-3.74V17.347A3.458,3.458,0,0,1,18.963,13.8c-2.093,0-3.737-1-3.737-3.385V.259h3.74v12.2a1.148,1.148,0,0,0,1.148,1.148H31.7V.259Z" transform="translate(6.873 0.117)" fill="#0a0a0a"/>
    <path id="Path_24" data-name="Path 24" d="M56.534.259V.371h-.562a2.7,2.7,0,0,0-2.238,1.421L46.249,15.817V28.309h-3.74V20.123c0-2.337.91-4.306,3.064-4.306a6.051,6.051,0,0,1-5.2-3.031L33.661,1.867h-.016c-.627-1-1.25-1.5-2.019-1.5V.259h7.89V.371h-.859c-.9,0-1.122.6-.6,1.5,2.65,4.482,5.37,9,8.048,13.489L52.984,1.867c.446-.9.147-1.5-.75-1.5h-1.61V.259Z" transform="translate(14.277 0.117)" fill="#0a0a0a"/>
    <path id="Path_25" data-name="Path 25" d="M66.321,21.095c0,4.637-3.29,7.7-8.19,7.7a10.09,10.09,0,0,1-7.349-3.331c-.827-.705-1.411-.472-1.478.639,0,.261-.039,1.711-.039,1.972H49.08V20.945h.485c.075.149.151.337.225.486a14.051,14.051,0,0,0,3.179,4.749l-.009.01a7.991,7.991,0,0,0,5.17,2.122A4.792,4.792,0,0,0,62.215,26.2a7.05,7.05,0,0,0,1.11-4.018c0-1.4-.925-2.824-2.753-4.068a16.3,16.3,0,0,0-3.566-1.766c-4.9-1.8-7.405-5.2-7.405-8.976C49.6,2.957,52.481,0,56.781,0a9.717,9.717,0,0,1,6.576,2.4l.006-.007c.673.636,1.16.562,1.234-.149,0-.149.039-1.523.039-1.673h.187V6.359h-.486c-.075-.149-.149-.337-.225-.486-1.3-3.041-3.517-5.5-7.33-5.5-2.543,0-4.227,2.245-4.227,5.573,0,2.431,2.282,4.9,6.694,6.507,4.675,1.684,7.068,5.012,7.071,8.64" transform="translate(22.156 0)" fill="#0a0a0a"/>
    <path id="Path_26" data-name="Path 26" d="M71.39.258h3.74V14.187c-2.094,0-3.74-1-3.74-3.386Zm3.74,13.929V28.308H71.39V17.729a3.459,3.459,0,0,1,3.74-3.541M93.362,28.2v.112H86.927L75.757,14.917a1.15,1.15,0,0,1-.006-1.466l8.154-9.9H83.9c1.57-1.907,1.345-3.179-.56-3.179H82.29V.258h8.116V.371h-.562A5.007,5.007,0,0,0,86.4,2.241c-2.582,2.984-5.139,5.994-7.708,8.992a1.149,1.149,0,0,0-.007,1.486L90.655,26.957a3.308,3.308,0,0,0,2.707,1.24" transform="translate(32.227 0.117)" fill="#0a0a0a"/>
    <path id="Path_27" data-name="Path 27" d="M63.779.069V.394L69.154.353a3.736,3.736,0,0,0-3.575,3.732v24.31a3.74,3.74,0,0,0,3.74-3.739V.069Z" transform="translate(28.791 0.032)" fill="#0a0a0a"/>
  </g>
</svg>
